<?xml version="1.0" standalone="no"?>
<!DOCTYPE svg PUBLIC "-//W3C//DTD SVG 20010904//EN"
 "http://www.w3.org/TR/2001/REC-SVG-20010904/DTD/svg10.dtd">
<svg version="1.0" xmlns="http://www.w3.org/2000/svg"
 width="1120.000000pt" height="1280.000000pt" viewBox="0 0 1120.000000 1280.000000"
 preserveAspectRatio="xMidYMid meet">
<metadata>
Created by potrace 1.15, written by Peter Selinger 2001-2017
</metadata>
<g transform="translate(0.000000,1280.000000) scale(0.100000,-0.100000)"
fill="#000000" stroke="none">
<path d="M2250 12514 c-410 -156 -801 -306 -870 -332 -69 -26 -407 -156 -753
-287 l-627 -239 0 -98 0 -99 2245 -3443 c1235 -1894 2245 -3446 2245 -3449 0
-5 -186 -387 -1100 -2257 -788 -1613 -900 -1843 -898 -1845 2 -1 770 -106
1708 -234 1192 -162 1726 -231 1774 -229 l69 3 272 620 c257 585 433 988 1305
2975 199 454 530 1208 735 1675 205 468 526 1199 713 1625 702 1600 1035 2361
1419 3235 217 495 467 1063 554 1263 l160 364 -3 96 -3 97 -1485 422 c-1397
398 -1490 423 -1565 423 l-80 0 -36 -88 c-20 -48 -185 -436 -367 -862 -440
-1034 -943 -2215 -1270 -2982 -147 -346 -269 -628 -272 -628 -3 1 -673 1027
-1490 2280 l-1485 2280 -75 -1 c-74 0 -89 -5 -820 -285z"/>
</g>
</svg>
